<svg width="400" height="400" viewBox="0 0 400 400" fill="none" xmlns="http://www.w3.org/2000/svg">
<path d="M234.944 189.905C234.944 189.905 213.137 211.076 216.931 211.076C220.725 211.076 268.113 208.384 264.96 211.076C226.096 244.254 98.2647 359.772 100.018 357.059C134.13 304.282 190.705 235.091 187.229 235.091C165.742 235.091 122.587 238.691 125.928 235.091C154.367 204.441 214.403 146.616 210.611 146.616C180.277 146.616 132.565 150.835 138.252 146.616C177.032 117.843 239.05 77.416 287.711 42.974C291.217 40.6522 257.693 89.1072 239.05 120.153C238.759 120.636 273.571 120.153 299.797 120.153C302.009 120.153 285.388 137.981 285.388 137.981M252.969 172.582L269.795 154.624" stroke="url(#paint0_linear_16_43)" stroke-width="15" stroke-linecap="round"/>
<defs>
<linearGradient id="paint0_linear_16_43" x1="200" y1="42.8936" x2="200" y2="357.106" gradientUnits="userSpaceOnUse">
<stop stop-color="#C444FC"/>
<stop offset="1" stop-color="#6155D9"/>
</linearGradient>
</defs>
</svg>
