<svg width="400" height="400" viewBox="0 0 400 400" fill="none" xmlns="http://www.w3.org/2000/svg">
<path d="M116.376 143.058C94.16 143.058 94.926 106.8 116.376 106.8H153.91M116.376 143.058H281.328M116.376 143.058C116.376 204.485 116.38 238.924 116.376 300.35C116.376 310.309 127.1 324.353 137.824 324.353H260.9C270.092 324.353 281.328 312.351 281.328 300.35V143.058M281.328 143.058C306.351 143.058 306.096 106.8 281.328 106.8H244.302M244.302 106.8V90.2021C244.302 85.8612 238.53 75.6475 230.769 75.6475L212.25 75.6475C196.079 75.6475 181.825 75.6474 169.486 75.6475C161.161 75.6476 153.91 84.074 153.91 90.2021V106.8M244.302 106.8H153.91M236.259 167.571V288.094M200 167.571V288.094M163.741 167.571V288.094" stroke="url(#paint0_linear_16_39)" stroke-width="15" stroke-linecap="round"/>
<defs>
<linearGradient id="paint0_linear_16_39" x1="163.997" y1="167.571" x2="163.997" y2="288.093" gradientUnits="userSpaceOnUse">
<stop stop-color="#C444FC"/>
<stop offset="1" stop-color="#6155D9"/>
</linearGradient>
</defs>
</svg>
