<svg width="401" height="401" viewBox="0 0 401 401" fill="none" xmlns="http://www.w3.org/2000/svg">
<path d="M196.141 169.201L227.828 200.889M227.828 200.889L259.516 232.576M227.828 200.889L259.515 169.201M227.828 200.889L196.141 232.576M175.162 126.694H279.329C291.28 126.694 300.968 136.383 300.968 148.333V253.444C300.968 265.395 291.28 275.083 279.329 275.083H175.162C169.423 275.083 163.919 272.804 159.861 268.745L107.306 216.19C98.8551 207.739 98.8551 194.038 107.306 185.588L159.861 133.032C163.919 128.974 169.423 126.694 175.162 126.694Z" stroke="url(#paint0_linear_16_41)" stroke-width="15" stroke-linecap="round"/>
<defs>
<linearGradient id="paint0_linear_16_41" x1="41.3665" y1="109.975" x2="41.3665" y2="236.449" gradientUnits="userSpaceOnUse">
<stop stop-color="#C444FC"/>
<stop offset="1" stop-color="#6155D9"/>
</linearGradient>
</defs>
</svg>
