<svg width="500" height="500" viewBox="0 0 500 500" fill="none" xmlns="http://www.w3.org/2000/svg">
<circle cx="250" cy="250" r="200" fill="url(#paint0_linear_6_47)"/>
<path d="M268.633 255.597H230.826C228.263 255.6 225.805 256.62 223.992 258.433C222.179 260.246 221.159 262.704 221.156 265.268V346.361H278.304V265.268C278.301 262.704 277.281 260.246 275.468 258.433C273.655 256.62 271.197 255.6 268.633 255.597Z" fill="#F2F4F8"/>
<path d="M342.69 229.528C341.886 228.886 341.032 228.311 340.135 227.808L263.21 159.393L260.313 156.816C257.63 154.923 254.466 153.829 251.186 153.662C247.907 153.494 244.647 154.26 241.785 155.869L236.362 160.637L159.902 227.802C159.459 228.049 159.022 228.312 158.597 228.598C155.501 230.665 153.068 233.581 151.59 236.997C150.112 240.413 149.651 244.183 150.263 247.854C150.876 251.525 152.535 254.941 155.042 257.693C157.549 260.444 160.797 262.413 164.395 263.363C164.821 263.475 165.253 263.57 165.69 263.654V346.361H209.951V265.268C209.958 259.733 212.16 254.428 216.073 250.514C219.987 246.601 225.292 244.399 230.826 244.392H268.633C274.168 244.399 279.473 246.601 283.386 250.514C287.3 254.428 289.502 259.733 289.509 265.268V346.361H333.21V263.833C334.133 263.711 335.047 263.524 335.944 263.273C339.368 262.303 342.458 260.406 344.872 257.792C347.287 255.177 348.932 251.947 349.628 248.457C350.323 244.967 350.041 241.352 348.813 238.012C347.585 234.672 345.458 231.736 342.667 229.528H342.69Z" fill="#F2F4F8"/>
<defs>
<linearGradient id="paint0_linear_6_47" x1="250" y1="50" x2="250" y2="450" gradientUnits="userSpaceOnUse">
<stop stop-color="#C444FC"/>
<stop offset="1" stop-color="#6155D9"/>
</linearGradient>
</defs>
</svg>
