<svg width="500" height="500" viewBox="0 0 500 500" fill="none" xmlns="http://www.w3.org/2000/svg">
<circle cx="250" cy="250" r="200" fill="url(#paint0_linear_6_45)"/>
<path d="M250 278.421C265.697 278.421 278.421 265.697 278.421 250C278.421 234.304 265.697 221.579 250 221.579C234.304 221.579 221.579 234.304 221.579 250C221.579 265.697 234.304 278.421 250 278.421Z" fill="#F2F4F8"/>
<path d="M205.79 258.947C210.731 258.947 214.737 254.941 214.737 250C214.737 245.058 210.731 241.053 205.79 241.053C200.848 241.053 196.842 245.058 196.842 250C196.842 254.941 200.848 258.947 205.79 258.947Z" fill="#F2F4F8"/>
<path d="M250 214.737C254.942 214.737 258.947 210.731 258.947 205.789C258.947 200.848 254.942 196.842 250 196.842C245.059 196.842 241.053 200.848 241.053 205.789C241.053 210.731 245.059 214.737 250 214.737Z" fill="#F2F4F8"/>
<path d="M250 303.158C254.942 303.158 258.947 299.152 258.947 294.211C258.947 289.269 254.942 285.263 250 285.263C245.059 285.263 241.053 289.269 241.053 294.211C241.053 299.152 245.059 303.158 250 303.158Z" fill="#F2F4F8"/>
<path d="M294.211 258.947C299.153 258.947 303.158 254.941 303.158 250C303.158 245.058 299.153 241.053 294.211 241.053C289.27 241.053 285.264 245.058 285.264 250C285.264 254.941 289.27 258.947 294.211 258.947Z" fill="#F2F4F8"/>
<path d="M342.105 226.316H328.421C327.26 226.316 326.113 226.572 325.062 227.066C324.012 227.56 323.083 228.28 322.342 229.174C320.821 223.869 318.715 218.75 316.063 213.911C317.248 214.051 318.449 213.922 319.577 213.532C320.705 213.142 321.729 212.501 322.574 211.658L332.247 201.979C333.727 200.498 334.559 198.491 334.559 196.397C334.559 194.304 333.727 192.296 332.247 190.816L309.547 168.126C308.814 167.393 307.944 166.811 306.986 166.414C306.027 166.017 305 165.812 303.963 165.812C302.926 165.812 301.899 166.017 300.941 166.414C299.983 166.811 299.112 167.393 298.379 168.126L288.705 177.8C287.885 178.621 287.255 179.612 286.861 180.704C286.467 181.795 286.319 182.96 286.426 184.116C281.603 181.44 276.498 179.305 271.205 177.753C272.139 177.016 272.894 176.079 273.414 175.01C273.935 173.941 274.207 172.768 274.211 171.579V157.895C274.211 155.801 273.379 153.793 271.898 152.312C270.418 150.832 268.41 150 266.316 150H234.211C232.117 150 230.109 150.832 228.628 152.312C227.148 153.793 226.316 155.801 226.316 157.895V171.579C226.316 172.74 226.572 173.887 227.066 174.938C227.56 175.988 228.28 176.917 229.174 177.658C223.869 179.179 218.75 181.285 213.911 183.937C214.051 182.752 213.922 181.551 213.532 180.423C213.142 179.295 212.501 178.271 211.658 177.426L201.989 167.753C200.509 166.273 198.501 165.441 196.408 165.441C194.314 165.441 192.307 166.273 190.826 167.753L168.126 190.453C167.393 191.186 166.811 192.056 166.414 193.014C166.017 193.973 165.812 195 165.812 196.037C165.812 197.074 166.017 198.101 166.414 199.059C166.811 200.017 167.393 200.888 168.126 201.621L177.8 211.295C178.621 212.115 179.612 212.745 180.704 213.139C181.795 213.533 182.96 213.681 184.116 213.574C181.44 218.397 179.305 223.502 177.753 228.795C177.016 227.861 176.079 227.106 175.01 226.586C173.941 226.065 172.768 225.793 171.579 225.789H157.895C155.801 225.789 153.793 226.621 152.312 228.102C150.832 229.582 150 231.59 150 233.684V265.789C150 267.883 150.832 269.891 152.312 271.372C153.793 272.852 155.801 273.684 157.895 273.684H171.579C172.74 273.684 173.887 273.428 174.938 272.934C175.988 272.44 176.917 271.72 177.658 270.826C179.179 276.131 181.285 281.25 183.937 286.089C182.752 285.949 181.551 286.078 180.423 286.468C179.295 286.858 178.271 287.499 177.426 288.342L167.753 298.011C166.273 299.491 165.441 301.499 165.441 303.592C165.441 305.686 166.273 307.693 167.753 309.174L190.453 331.874C191.186 332.607 192.056 333.189 193.014 333.586C193.973 333.983 195 334.188 196.037 334.188C197.074 334.188 198.101 333.983 199.059 333.586C200.017 333.189 200.888 332.607 201.621 331.874L211.295 322.2C212.115 321.379 212.745 320.388 213.139 319.296C213.533 318.205 213.681 317.04 213.574 315.884C218.397 318.56 223.502 320.695 228.795 322.247C227.861 322.984 227.106 323.921 226.586 324.99C226.065 326.059 225.793 327.232 225.789 328.421V342.105C225.789 344.199 226.621 346.207 228.102 347.688C229.582 349.168 231.59 350 233.684 350H265.789C267.883 350 269.891 349.168 271.372 347.688C272.852 346.207 273.684 344.199 273.684 342.105V328.421C273.684 327.26 273.428 326.113 272.934 325.062C272.44 324.012 271.72 323.083 270.826 322.342C276.131 320.821 281.25 318.715 286.089 316.063C285.949 317.248 286.078 318.449 286.468 319.577C286.858 320.705 287.499 321.729 288.342 322.574L298.021 332.247C299.502 333.727 301.509 334.559 303.603 334.559C305.696 334.559 307.704 333.727 309.184 332.247L331.884 309.547C332.618 308.814 333.2 307.944 333.597 306.986C333.994 306.027 334.198 305 334.198 303.963C334.198 302.926 333.994 301.899 333.597 300.941C333.2 299.983 332.618 299.112 331.884 298.379L322.211 288.705C321.39 287.885 320.399 287.255 319.307 286.861C318.215 286.467 317.05 286.319 315.895 286.426C318.571 281.603 320.705 276.498 322.258 271.205C322.993 272.137 323.929 272.892 324.996 273.412C326.063 273.932 327.234 274.205 328.421 274.211H342.105C344.199 274.211 346.207 273.379 347.688 271.898C349.168 270.418 350 268.41 350 266.316V234.211C350 232.117 349.168 230.109 347.688 228.628C346.207 227.148 344.199 226.316 342.105 226.316ZM250 311.053C237.925 311.053 226.121 307.472 216.081 300.763C206.041 294.055 198.216 284.52 193.595 273.364C188.974 262.208 187.765 249.932 190.12 238.089C192.476 226.246 198.291 215.368 206.829 206.829C215.368 198.291 226.246 192.476 238.089 190.12C249.932 187.765 262.208 188.974 273.364 193.595C284.52 198.216 294.055 206.041 300.763 216.081C307.472 226.121 311.053 237.925 311.053 250C311.053 266.192 304.62 281.721 293.171 293.171C281.721 304.62 266.192 311.053 250 311.053V311.053Z" fill="#F2F4F8"/>
<defs>
<linearGradient id="paint0_linear_6_45" x1="250" y1="50" x2="250" y2="450" gradientUnits="userSpaceOnUse">
<stop stop-color="#C444FC"/>
<stop offset="1" stop-color="#6155D9"/>
</linearGradient>
</defs>
</svg>
