<svg width="500" height="500" viewBox="0 0 500 500" fill="none" xmlns="http://www.w3.org/2000/svg">
<circle cx="250" cy="250" r="200" fill="url(#paint0_linear_6_46)"/>
<path d="M350 337.447H150V343.833H350V337.447Z" fill="#F2F4F8"/>
<path d="M159.896 273.09V328.113C159.896 330.283 161.761 332.043 164.063 332.043H195.833C198.135 332.043 200 330.283 200 328.113V273.09C200 270.919 198.135 269.16 195.833 269.16H164.063C161.761 269.16 159.896 270.919 159.896 273.09Z" fill="#F2F4F8"/>
<path d="M206.771 197.434V328.113C206.771 330.283 208.636 332.043 210.938 332.043H242.708C245.01 332.043 246.875 330.283 246.875 328.113V197.434C246.875 195.263 245.01 193.504 242.708 193.504H210.938C208.636 193.504 206.771 195.263 206.771 197.434Z" fill="#F2F4F8"/>
<path d="M300 160.097V328.113C300 330.283 301.865 332.043 304.167 332.043H335.938C338.239 332.043 340.104 330.283 340.104 328.113V160.097C340.104 157.926 338.239 156.167 335.938 156.167H304.167C301.865 156.167 300 157.926 300 160.097Z" fill="#F2F4F8"/>
<path d="M253.125 236.244V328.113C253.125 330.283 254.99 332.043 257.292 332.043H289.062C291.364 332.043 293.229 330.283 293.229 328.113V236.244C293.229 234.074 291.364 232.314 289.062 232.314H257.292C254.99 232.314 253.125 234.074 253.125 236.244Z" fill="#F2F4F8"/>
<defs>
<linearGradient id="paint0_linear_6_46" x1="250" y1="50" x2="250" y2="450" gradientUnits="userSpaceOnUse">
<stop stop-color="#C444FC"/>
<stop offset="1" stop-color="#6155D9"/>
</linearGradient>
</defs>
</svg>
